# xmcd CD database file
#
# Track frame offsets:
#	225
#	20076
#	32513
#	47622
#	62934
#	74716
#	88069
#	104414
#	116813
#	136191
#	147972
#	161446
#	174327
#	184699
#
# Disc length: 2641 seconds
#
# Revision: 2
# Processed by: cddbd v1.5.2PL0 Copyright (c) Steve Scherf et al.
# Submitted via: CDex 1.70beta2
#
DISCID=c80a4e0e
DTITLE=Barry White - Under The Influence Of Love
DYEAR=2003
DGENRE=Pop/Funk
TTITLE0=Under The Influence Of Love
TTITLE1=Out Of The Shadows Of Love
TTITLE2=Your Heart And Soul
TTITLE3=Come On In Love
TTITLE4=Love Ain't Easy
TTITLE5=I've Got The Whole World To Hold Me Up
TTITLE6=Long Black Veil
TTITLE7=All In The Run Of A Day
TTITLE8=It Ain't Love Babe
TTITLE9=Where Can I Turn Too
TTITLE10=My Buddy
TTITLE11=I'm Fragile, Handle with Care
TTITLE12=I Owe It All To You
TTITLE13=Barry White - Under The Influence Of Love (instrumental)
EXTD=YEAR: 2003
EXTT0=
EXTT1=
EXTT2=
EXTT3=
EXTT4=
EXTT5=
EXTT6=
EXTT7=
EXTT8=
EXTT9=
EXTT10=
EXTT11=
EXTT12=
EXTT13=Instrumental Version
PLAYORDER=
